<svg width="36" height="36" viewBox="0 0 36 36" fill="none" xmlns="http://www.w3.org/2000/svg">
<path d="M19.9224 0H22.23V4.69221H19.9224V0Z" fill="white"/>
<path d="M26.076 0H28.3837V4.69221H26.076V0Z" fill="white"/>
<path d="M13.7687 0H16.0763V4.69221H13.7687V0Z" fill="white"/>
<path d="M7.61505 0H9.92266V4.69221H7.61505V0Z" fill="white"/>
<path d="M0 13.7688H4.69221V16.0764H0V13.7688Z" fill="white"/>
<path d="M0 7.61499H4.69221V9.9226H0V7.61499Z" fill="white"/>
<path d="M0 19.9224H4.69221V22.23H0V19.9224Z" fill="white"/>
<path d="M0 26.076H4.69221V28.3837H0V26.076Z" fill="white"/>
<path d="M13.7687 31.3077H16.0763V35.9999H13.7687V31.3077Z" fill="white"/>
<path d="M7.61505 31.3077H9.92266V35.9999H7.61505V31.3077Z" fill="white"/>
<path d="M19.9224 31.3077H22.23V35.9999H19.9224V31.3077Z" fill="white"/>
<path d="M26.076 31.3077H28.3837V35.9999H26.076V31.3077Z" fill="white"/>
<path d="M31.3078 19.9224H36V22.23H31.3078V19.9224Z" fill="white"/>
<path d="M31.3078 26.076H36V28.3837H31.3078V26.076Z" fill="white"/>
<path d="M31.3078 13.7688H36V16.0764H31.3078V13.7688Z" fill="white"/>
<path d="M31.3078 7.61499H36V9.9226H31.3078V7.61499Z" fill="white"/>
<path d="M10.6522 25.4019H25.3464V10.5967H10.6522V25.4019ZM22.5371 21.986H20.8511V16.5748H22.5371V21.986ZM21.694 14.0125C22.2317 14.0125 22.6376 14.4207 22.6408 14.9632C22.6477 15.2169 22.558 15.453 22.3879 15.629C22.2086 15.8144 21.9549 15.9165 21.6734 15.9165C21.1483 15.9165 20.737 15.5006 20.737 14.9697C20.7369 14.4329 21.1574 14.0125 21.694 14.0125ZM15.5331 14.216H17.1761L19.8276 21.986H18.0455L17.298 19.7851H15.3724L14.6456 21.986H12.893L15.5331 14.216Z" fill="white"/>
<path d="M16.3371 16.8032C16.3355 16.7985 16.3339 16.7938 16.3324 16.7892L15.8188 18.3067H16.8488L16.3371 16.8032Z" fill="white"/>
<path d="M4.70166 4.61536V31.3836H31.2973V4.61536H4.70166ZM27.6675 26.5624C27.6675 27.2033 27.1479 27.7229 26.507 27.7229H9.4917C8.85084 27.7229 8.33124 27.2033 8.33124 26.5624V9.43655C8.33124 8.79568 8.85084 8.27608 9.4917 8.27608H26.507C27.1479 8.27608 27.6675 8.79568 27.6675 9.43655L27.6676 26.5624H27.6675Z" fill="white"/>
</svg>
