<svg width="37" height="18" viewBox="0 0 37 18" fill="none" xmlns="http://www.w3.org/2000/svg">
<path d="M36.3148 5.53846H34.2593V0.692308C34.2593 0.31008 33.9529 0 33.5741 0H30.8333C30.4545 0 30.1481 0.310095 30.1481 0.692308V6.92308H6.85185V0.692308C6.85185 0.31008 6.54495 0 6.16667 0H3.42593C3.04763 0 2.74074 0.310095 2.74074 0.692308V5.53846H0.685185C0.30689 5.53846 0 5.84856 0 6.23077V11.7692C0 12.152 0.306904 12.4615 0.685185 12.4615H2.74074V17.3077C2.74074 17.6905 3.04765 18 3.42593 18H6.16667C6.54496 18 6.85185 17.6905 6.85185 17.3077V11.0769H30.1481V17.3077C30.1481 17.6905 30.4545 18 30.8333 18H33.5741C33.9529 18 34.2593 17.6905 34.2593 17.3077V12.4615H36.3148C36.6937 12.4615 37 12.152 37 11.7692V6.23077C37 5.84854 36.6937 5.53846 36.3148 5.53846Z" fill="white"/>
</svg>
