<svg width="36" height="51" viewBox="0 0 36 51" fill="none" xmlns="http://www.w3.org/2000/svg">
<path d="M33.4286 20.4388H10.2857V13.0532C10.2857 9.23302 12.8571 5.92223 16.4571 5.1582C21.3429 4.39417 25.7143 7.95964 25.7143 12.7985C25.7143 14.3266 27 15.3453 28.2857 15.3453C29.5714 15.3453 30.8571 14.3266 30.8571 12.7985C30.8571 5.41287 24.4286 -0.699366 16.7143 0.0646641C10.0286 0.828694 5.14286 6.68626 5.14286 13.3079V20.4388H2.57143C1.28571 20.4388 0 21.4575 0 22.9856V48.4532C0 49.7266 1.28571 51 2.57143 51H33.4286C34.9714 51 36 49.7266 36 48.4532V22.9856C36 21.4575 34.9714 20.4388 33.4286 20.4388ZM20.5714 37.5021V40.8129C20.5714 42.341 19.5429 43.3597 18 43.3597C16.4571 43.3597 15.4286 42.341 15.4286 40.8129V37.5021C13.8857 36.4834 12.8571 34.9554 12.8571 33.1726C12.8571 29.8618 15.9429 27.5697 19.2857 28.3338C21.0857 28.8431 22.6286 30.3712 23.1429 32.1539C23.6571 34.446 22.3714 36.4834 20.5714 37.5021Z" fill="white"/>
</svg>
